PathFileType	4	(X/Y/Z)	OpenSim_Sub11_EMGPreOp_Magnet.trc
DataRate	CameraRate	NumFrames	NumMarkers	Units	OrigDataRate	OrigDataStartFrame	OrigNumFrames
100	100	23	8	m	100	2207	5885
Frame#	Time	torso_imu_offset_imu	pelvis_imu_offset_imu	tibia_r_imu_offset_imu	femur_r_imu_offset_imu	tibia_l_imu_offset_imu	femur_l_imu_offset_imu	toes_r_imu_offset_imu	toes_l_imu_offset_imu
				X1	Y1	Z1	X2	Y2	Z2	X3	Y3	Z3	X4	Y4	Z4	X5	Y5	Z5	X6	Y6	Z6	X7	Y7	Z7	X8		Y8	Z8	

2207	22.06000000	-0.91927484	-0.22682751	0.06502857	-0.49959958	0.15878139	-0.66522695	-0.57409636	-0.50444703	-0.34413734	-0.74198026	-0.35611610	-0.03713190	-0.68507072	0.44406972	0.22760462	-0.62484086	0.20291589	0.46892055	-0.54050555	-0.34862860	-0.43765478	-0.78241737	-0.04140391	-0.34709812
2208	22.07000000	-0.92214783	-0.22224307	0.06599851	-0.48670965	0.16341026	-0.66072221	-0.58936897	-0.48420168	-0.34434621	-0.72524600	-0.36085300	-0.03639638	-0.67207608	0.44741535	0.23069533	-0.61297580	0.20680302	0.47688996	-0.52399837	-0.33467556	-0.44333508	-0.77229952	-0.03555746	-0.34135167
2209	22.08000000	-0.92073149	-0.21978336	0.06899331	-0.49248704	0.16542109	-0.66971971	-0.60578725	-0.47064646	-0.33636301	-0.72997853	-0.36395493	-0.04475300	-0.67858799	0.45436426	0.22424433	-0.61883130	0.21441737	0.47120142	-0.52650524	-0.32037463	-0.45840542	-0.78259369	-0.03091334	-0.34503636
2210	22.09000000	-0.92263903	-0.22058853	0.06735382	-0.49284460	0.16641369	-0.66806152	-0.61180987	-0.46142321	-0.32825842	-0.73169232	-0.37374409	-0.04483197	-0.67917766	0.45158144	0.22908463	-0.62040626	0.21443599	0.47307303	-0.52274339	-0.31757520	-0.46518325	-0.78711796	-0.03373009	-0.34188762
2211	22.10000000	-0.91831698	-0.22499882	0.06883859	-0.48820120	0.16999908	-0.66012502	-0.62455136	-0.45051824	-0.32735076	-0.72344665	-0.37810126	-0.03837209	-0.67359327	0.45499651	0.23668148	-0.61686665	0.21605447	0.48244424	-0.51272421	-0.30991602	-0.46679396	-0.78570913	-0.03039688	-0.33212580
2212	22.11000000	-0.91673855	-0.22421784	0.06253581	-0.48822290	0.16965398	-0.67156115	-0.63537245	-0.44282797	-0.32710876	-0.71931700	-0.38228767	-0.04761781	-0.67395184	0.45813333	0.22782234	-0.61386230	0.21838997	0.47196768	-0.50800036	-0.30531838	-0.48409083	-0.78806606	-0.03071713	-0.34209513
2213	22.12000000	-0.91958651	-0.23031609	0.06161885	-0.49015421	0.16958863	-0.66694437	-0.63781946	-0.43162289	-0.31832567	-0.72157788	-0.38929618	-0.04366655	-0.67616099	0.45548972	0.23257544	-0.61730888	0.21629193	0.47756767	-0.50660043	-0.30441774	-0.48758066	-0.79392915	-0.03205543	-0.33596026
2214	22.13000000	-0.91843410	-0.22920873	0.06400269	-0.48879115	0.17028461	-0.66849855	-0.64292260	-0.42914500	-0.31555076	-0.72255205	-0.39326571	-0.04568594	-0.67507979	0.46118318	0.22833724	-0.61584270	0.21982115	0.47816359	-0.50439973	-0.29905855	-0.49147726	-0.79625911	-0.02792395	-0.33301574
2215	22.14000000	-0.91825154	-0.22980099	0.06073677	-0.48472838	0.17360188	-0.66974738	-0.65618757	-0.42710184	-0.31315857	-0.71410504	-0.38900914	-0.04809316	-0.66966194	0.46339679	0.22680970	-0.60632351	0.22338258	0.47655041	-0.49662326	-0.29281871	-0.49795542	-0.79562143	-0.02422100	-0.33630110
2216	22.15000000	-0.91351474	-0.22848000	0.06627309	-0.48200978	0.16935534	-0.66320698	-0.66158856	-0.42045700	-0.31172286	-0.70929000	-0.39613004	-0.03833345	-0.66287974	0.46064544	0.23433796	-0.60313834	0.21902148	0.48707736	-0.49067389	-0.29746754	-0.49385025	-0.79239674	-0.02954475	-0.32773293
2217	22.16000000	-0.91985874	-0.22870082	0.06198216	-0.48800197	0.17174790	-0.66123492	-0.66190089	-0.41172450	-0.31234418	-0.71836807	-0.39180073	-0.03465023	-0.66942362	0.46644870	0.23222412	-0.61023741	0.22507858	0.48400222	-0.49385554	-0.29041105	-0.49565512	-0.80028473	-0.02442632	-0.32215218
2218	22.17000000	-0.92200180	-0.23041938	0.05644911	-0.48328570	0.17673865	-0.65947288	-0.66364163	-0.41000088	-0.31227563	-0.71477729	-0.38881324	-0.03308791	-0.66492649	0.46929031	0.23003736	-0.60463678	0.22623624	0.48477677	-0.49254231	-0.28688669	-0.49761863	-0.79987424	-0.02489590	-0.32215639
2219	22.18000000	-0.91922616	-0.22912881	0.05994886	-0.49173852	0.17309094	-0.66595343	-0.66485141	-0.40546399	-0.31260562	-0.72235079	-0.39162997	-0.03258821	-0.66928729	0.47279740	0.22263187	-0.60987798	0.22586846	0.47972708	-0.49900763	-0.28700485	-0.50135508	-0.80775814	-0.02348444	-0.32575640
2220	22.19000000	-0.91760086	-0.23205388	0.05470022	-0.48755372	0.17651664	-0.66078127	-0.66861989	-0.40110150	-0.31216546	-0.71744436	-0.38599174	-0.02192050	-0.66223189	0.47840821	0.23154234	-0.60303039	0.23237680	0.48507729	-0.49698754	-0.28386223	-0.49380151	-0.80561820	-0.01818692	-0.31863334
2221	22.20000000	-0.91806739	-0.22523772	0.05298128	-0.48823446	0.18058210	-0.66126144	-0.67187949	-0.39830006	-0.30953404	-0.71716000	-0.38168208	-0.02094294	-0.66034865	0.48727923	0.22946035	-0.60264221	0.24056288	0.48329809	-0.49963369	-0.28625675	-0.48873593	-0.80681281	-0.01202670	-0.31510652
2222	22.21000000	-0.91734358	-0.22989556	0.05030573	-0.48889949	0.16619715	-0.66061719	-0.67753693	-0.39769694	-0.30854893	-0.71360024	-0.39747067	-0.01644950	-0.65530090	0.47543333	0.22575793	-0.59904119	0.22848261	0.48168069	-0.50072443	-0.31163320	-0.47625309	-0.80603353	-0.02277806	-0.31265122
2223	22.22000000	-0.91911062	-0.23074358	0.04952498	-0.49138374	0.16956455	-0.65605863	-0.67470803	-0.39751758	-0.31089853	-0.71391147	-0.39473831	-0.00615423	-0.65630700	0.48657842	0.23132544	-0.60112887	0.23971355	0.48935039	-0.50346896	-0.30541653	-0.46811614	-0.81124041	-0.01382716	-0.30451545
2224	22.23000000	-0.92180232	-0.23326329	0.04704607	-0.49558403	0.16623682	-0.66420162	-0.66928259	-0.40053115	-0.30972569	-0.71814025	-0.40164221	-0.01159488	-0.65792282	0.49007942	0.22170343	-0.60658112	0.24259356	0.47781752	-0.51197407	-0.30613090	-0.47576250	-0.81700218	-0.01552491	-0.31136008
2225	22.24000000	-0.92030403	-0.22871796	0.03835428	-0.49496932	0.15165840	-0.66844641	-0.67150636	-0.39804241	-0.30739672	-0.71093718	-0.41942035	-0.00953271	-0.65310308	0.48178601	0.21932152	-0.60319908	0.23184435	0.47590129	-0.51285121	-0.32358074	-0.47252204	-0.81345817	-0.02778061	-0.31064408
2226	22.25000000	-0.92242570	-0.23038367	0.03341121	-0.49839081	0.16022367	-0.66412566	-0.67935764	-0.39432201	-0.30594540	-0.70692136	-0.41674101	-0.00102495	-0.65201908	0.49805684	0.21989031	-0.60172661	0.24704067	0.47732000	-0.51676257	-0.30843430	-0.46204645	-0.81698261	-0.01443891	-0.30419868
2227	22.26000000	-0.92288352	-0.23128890	0.02414346	-0.50523923	0.15259470	-0.66287494	-0.68662655	-0.38662164	-0.30691985	-0.70565309	-0.42851064	0.00591679	-0.65236509	0.49531593	0.22153873	-0.60413080	0.24258777	0.47810720	-0.52569820	-0.31222214	-0.45421057	-0.82074209	-0.01739264	-0.30104233
2228	22.27000000	-0.92388652	-0.22919230	0.02360056	-0.49640479	0.15589161	-0.64979590	-0.68758180	-0.38655071	-0.30448296	-0.69460879	-0.42961548	0.01895768	-0.64452526	0.50673315	0.22978601	-0.59787628	0.25417705	0.48806289	-0.52364546	-0.30531674	-0.43933512	-0.81607076	-0.00916744	-0.28717932
2229	22.28000000	-0.91873964	-0.22964746	0.02538318	-0.50760567	0.14957991	-0.65376802	-0.68672366	-0.38854913	-0.29900209	-0.70077907	-0.43898388	0.01484408	-0.65075581	0.50793885	0.22620973	-0.60704013	0.25585426	0.48357233	-0.53963552	-0.30476511	-0.43776806	-0.82766680	-0.01116780	-0.28594679
